<svg xmlns="http://www.w3.org/2000/svg" xml:space="preserve" width="377.953" height="188.976" style="shape-rendering:geometricPrecision;text-rendering:geometricPrecision;image-rendering:optimizeQuality;fill-rule:evenodd;clip-rule:evenodd" viewBox="0 0 3937.01 1968.5"><defs><style>.fil2{fill:#fff;fill-rule:nonzero}</style></defs><g id="Layer_x0020_1"><g id="_2249260816704"><path d="m1965.74 1238.88 441.06-455.43 3.79-.18h1252.48l-103.22 178.35H2494.99c-176.07 184.48-351.06 369.96-529.19 552.38l-524.69-551.33-1070.57-1.05-.22-.37-102.76-177.98 1257.11.18 441.06 455.43h.01zm-693.6 79.44H577L473.8 1140h881.69l-83.34 178.32h-.01zm1388.27 0h693l103.2-178.32h-879.55l83.35 178.32zM1101.65 1675H783.43l-102.95-178.32h505.41L1101.65 1675zm1731.81 0h313.52l103.2-178.32h-500.96l84.24 178.32zm313.52 0h4.7l.56-.95-5.26.95z" style="fill:#fff"/><path d="M1476.09 1861.84h-263.57l590.03-1265.35h329.99l590.04 1265.35-267.26-1c-162.96-349.5-325.59-699.51-489.6-1049.61-162.78 350.18-326.86 701.48-489.63 1050.61z" style="fill:#d83135"/><path d="M505.38 372.17c0-9.2-6.33-15.52-15.52-15.52l-83.96-.57c-9.19 0-14.94 5.75-16.09 15.52-2.3 42.56-28.18 56.93-65.56 56.93l-143.73.57c-31.64 0-56.93-21.85-56.93-48.3V230.73c0-25.88 25.3-47.72 56.93-47.72l143.73-.57c32.78 0 59.22 8.62 64.4 48.87 2.3 9.78 8.63 15.53 17.25 15.53h83.96c9.19 0 15.52-6.33 15.52-15.53v-14.95c0-60.94-48.3-111.54-129.37-111.54H120.14c-61.53 0-111.55 50.02-111.55 111.54v119.87l98.56 170.3c4.26.5 8.59.76 12.99.76h255.87c61.52 0 129.37-39.67 129.37-111.55v-23.57zM611.17 104.81c-13.22 0-24.15 10.93-24.15 24.15v41.4c0 13.22 10.93 23.57 24.15 23.57h372.58c13.23 0 24.15-10.35 24.15-23.57v-41.4c0-13.22-10.93-24.15-24.15-24.15H611.17zm85.67 313.36v-83.95h233.44c13.23 0 24.15-10.35 24.15-23.57v-27.03c0-13.22-10.92-27.01-24.15-27.01H611.17c-13.22 0-24.15 16.67-24.15 29.9v196.64c0 13.22 10.93 24.15 24.15 24.15h372.58c13.23 0 24.15-10.93 24.15-24.15v-41.4c0-13.22-10.93-23.57-24.15-23.57H696.84v-.01zM1494.34 104.81c-13.23 0-24.15 10.93-24.15 24.15v261.61l-226.55-261.61c-8.04-11.5-21.84-24.15-35.07-24.15H1095.3c-13.22 0-24.15 10.93-24.15 24.15v354.19c0 13.22 10.93 24.15 24.15 24.15h67.28c13.22 0 23.56-10.93 23.56-24.15V218.08l228.27 265.07c8.63 12.65 17.26 24.15 33.35 24.15h113.84c13.22 0 23.57-10.93 23.57-24.15V128.96c0-13.22-10.35-24.15-23.57-24.15h-67.27.02zM1669.7 104.81c-13.22 0-24.15 10.93-24.15 24.15v41.4c0 13.22 10.93 24.15 24.15 24.15l148.34-.57v289.21c0 13.22 10.93 24.15 24.15 24.15h66.69c13.23 0 24.16-10.93 24.16-24.15V193.94l148.91.57c16.09 0 23.58-8.05 23.58-25.87v-43.13c0-13.22-10.35-20.7-23.58-20.7h-412.26.01zM2190.06 104.81c-13.22 0-24.15 10.93-24.15 24.15v41.4c0 13.22 10.93 24.15 24.15 24.15h265.63c57.5 0 74.18 32.78 74.18 66.7 0 37.38-20.7 62.67-74.18 62.67H2280.9v-39.09c0-13.24-10.93-23.58-24.15-23.58h-66.69c-13.22 0-24.15 10.35-24.15 23.58v198.36c0 13.22 10.93 24.15 24.15 24.15h66.69c13.23 0 24.15-10.93 24.15-24.15v-93.73h161.57l69 93.53c10.93 14.48 16.68 24.34 33.93 24.34h81.07c13.23 0 30.48-5.84 17.25-23.77l-75.32-105.59c65.55-24.15 83.94-80.51 83.94-129.95 0-116.72-93.71-142.59-148.91-142.59l-313.36-.58h-.01zM3088.75 104.81c-13.22 0-23.57 10.35-23.57 23.57v241.49c0 36.22-18.4 57.5-58.07 57.5h-121.89c-37.95 0-56.93-22.43-56.93-57.5V128.38c0-13.23-10.35-23.57-23.58-23.57h-67.84c-13.22 0-23.57 10.35-23.57 23.57v257.59c0 69 45.42 121.32 121.32 121.32h224.24c70.72 0 121.32-44.27 121.32-121.32V128.38c0-13.23-10.35-23.57-23.57-23.57h-67.86zM3594.16 404.37l-165.02-275.41c-7.48-13.8-16.1-24.15-33.35-24.15h-109.82c-13.22 0-24.15 10.93-24.15 24.15v354.19c0 13.22 10.93 24.15 24.15 24.15h66.7c13.23 0 24.15-10.93 24.15-24.15V243.96l148.92 239.19c6.9 12.08 20.13 24.15 33.35 24.15h70.14c13.24 0 26.46-12.07 33.35-24.15l148.92-239.19v239.19c0 9.19 5.27 17.26 12.92 21.33L3926.5 328.1V128.96c0-13.22-10.93-24.15-24.15-24.15h-109.81c-17.25 0-25.88 10.35-33.35 24.15l-165.02 275.41h-.02z" class="fil2"/></g></g></svg>